<svg xmlns="http://www.w3.org/2000/svg" xmlns:xlink="http://www.w3.org/1999/xlink" viewBox="0 0 768 232.69">
	<g id="Layer_2">
		<g id="Layer_1-2">
			<path d="M260.46,151.17c-12.9,16.4-34.14,25.81-55.11,25.81-40.32,0-72.58-26.88-72.58-68.55S165,39.88,205.35,39.88c37.63,0,61.29,26.88,61.29,68.55v12.63H173.09c3.23,15.32,14.78,25.27,30.38,25.27,13.17,0,22-6.72,28.76-15.86ZM226.32,93.64c.27-13.44-10.22-24.73-24.73-24.73-17.74,0-27.42,12.1-28.49,24.73Z" style="fill: rgb(65, 64, 66);"></path>
			<path d="M401.32,151.17c-12.9,16.4-34.14,25.81-55.11,25.81-40.32,0-72.58-26.88-72.58-68.55s32.26-68.55,72.58-68.55c37.63,0,61.29,26.88,61.29,68.55v12.63H314c3.23,15.32,14.78,25.27,30.38,25.27,13.17,0,22-6.72,28.76-15.86ZM367.18,93.64c.27-13.44-10.22-24.73-24.73-24.73C324.7,68.91,315,81,314,93.64Z" style="fill: rgb(65, 64, 66);"></path>
			<path d="M660.28,151.17c-12.9,16.4-34.14,25.81-55.11,25.81-40.32,0-72.58-26.88-72.58-68.55s32.26-68.55,72.58-68.55c37.64,0,61.29,26.88,61.29,68.55v12.63H572.92c3.22,15.32,14.78,25.27,30.38,25.27,13.17,0,22-6.72,28.76-15.86ZM626.14,93.64c.27-13.44-10.21-24.73-24.73-24.73-17.74,0-27.42,12.1-28.49,24.73Z" style="fill: rgb(65, 64, 66);"></path>
			<path d="M676.06,43.1h40.32v21h.54c8.6-15.86,19.89-24.19,37.64-24.19,4.57,0,9.68.27,13.44,1.34V78a62.15,62.15,0,0,0-17.21-2.69c-30.64,0-34.41,17.74-34.41,43.82v54.57H676.06Z" style="fill: rgb(65, 64, 66);"></path>
			<path d="M0,43.1H74.34c22.88,0,47.79,4.8,47.79,33.21,0,14.58-9,24.54-22.51,28.79v.37c17.16,2.21,28.6,14.95,28.6,31.92,0,27.31-25.83,36.35-49.08,36.35H0ZM39.89,94.19H64.73c8.86,0,18.08-2.55,18.08-13.07,0-10.89-10.33-13.65-19.38-13.65H39.89Zm0,55.2H69.71c9,0,19.19-3.88,19.19-15.32,0-12.36-13.84-13.82-23.25-13.82H39.89Z" style="fill: rgb(65, 64, 66);"></path>
			<polygon points="464.51 42.99 479.86 3.86 474.94 0 410.86 68.72 410.96 75.24 411.3 75.24 411.3 75.36 477.43 75.36 401.15 165.07 401.15 173.75 452.59 173.75 423.32 230.82 428.24 232.69 516.18 148.92 516.18 141.49 467.34 141.49 546.85 49.93 546.85 43.1 464.51 42.99" style="fill: rgb(195, 207, 47);"></polygon>
		</g>
	</g>
</svg>